<svg style="display: none" xmlns="http://www.w3.org/2000/svg" xmlns:xlink="http://www.w3.org/1999/xlink">
	<svg id="facebook" xmlns="http://www.w3.org/2000/svg"  viewBox="0 0 30 30" width="30px" height="30px">    <path d="M24,4H6C4.895,4,4,4.895,4,6v18c0,1.105,0.895,2,2,2h10v-9h-3v-3h3v-1.611C16,9.339,17.486,8,20.021,8 c1.214,0,1.856,0.09,2.16,0.131V11h-1.729C19.376,11,19,11.568,19,12.718V14h3.154l-0.428,3H19v9h5c1.105,0,2-0.895,2-2V6 C26,4.895,25.104,4,24,4z"/></svg>
	<svg id="instagram" xmlns="http://www.w3.org/2000/svg" width="24" height="24" viewBox="0 0 24 24"><path d="M12 2.163c3.204 0 3.584.012 4.85.07 3.252.148 4.771 1.691 4.919 4.919.058 1.265.069 1.645.069 4.849 0 3.205-.012 3.584-.069 4.849-.149 3.225-1.664 4.771-4.919 4.919-1.266.058-1.644.07-4.85.07-3.204 0-3.584-.012-4.849-.07-3.26-.149-4.771-1.699-4.919-4.92-.058-1.265-.07-1.644-.07-4.849 0-3.204.013-3.583.07-4.849.149-3.227 1.664-4.771 4.919-4.919 1.266-.057 1.645-.069 4.849-.069zm0-2.163c-3.259 0-3.667.014-4.947.072-4.358.2-6.78 2.618-6.98 6.98-.059 1.281-.073 1.689-.073 4.948 0 3.259.014 3.668.072 4.948.2 4.358 2.618 6.78 6.98 6.98 1.281.058 1.689.072 4.948.072 3.259 0 3.668-.014 4.948-.072 4.354-.2 6.782-2.618 6.979-6.98.059-1.28.073-1.689.073-4.948 0-3.259-.014-3.667-.072-4.947-.196-4.354-2.617-6.78-6.979-6.98-1.281-.059-1.69-.073-4.949-.073zm0 5.838c-3.403 0-6.162 2.759-6.162 6.162s2.759 6.163 6.162 6.163 6.162-2.759 6.162-6.163c0-3.403-2.759-6.162-6.162-6.162zm0 10.162c-2.209 0-4-1.79-4-4 0-2.209 1.791-4 4-4s4 1.791 4 4c0 2.21-1.791 4-4 4zm6.406-11.845c-.796 0-1.441.645-1.441 1.44s.645 1.44 1.441 1.44c.795 0 1.439-.645 1.439-1.44s-.644-1.44-1.439-1.44z"/></svg>
	<svg id="youtube" xmlns="http://www.w3.org/2000/svg"  viewBox="0 0 50 50" width="50px" height="50px" fill-rule="evenodd"><path fill-rule="evenodd" d="M 13 5 L 16 14 L 16 20 L 18 20 L 18 14 L 21 5 L 19 5 L 17 11 L 15 5 Z M 24 9 C 22.933594 9 22.410156 9.167969 21.757813 9.703125 C 21.132813 10.230469 20.960938 10.636719 21 12 L 21 17 C 21 17.996094 21.164063 18.652344 21.765625 19.234375 C 22.390625 19.816406 22.980469 20 24 20 C 25.066406 20 25.648438 19.816406 26.25 19.234375 C 26.875 18.675781 27 17.996094 27 17 L 27 12 C 27 11.117188 26.84375 10.28125 26.238281 9.722656 C 25.613281 9.148438 24.96875 9 24 9 Z M 29 9 L 29 18 C 29 18.972656 29.980469 20 31 20 C 32.019531 20 32.558594 19.488281 33 19 L 33 20 L 35 20 L 35 9 L 33 9 L 33 17 C 32.988281 17.683594 32.183594 18 32 18 C 31.792969 18 31 17.957031 31 17 L 31 9 Z M 24 11 C 24.300781 11 25 10.996094 25 12 L 25 17 C 25 17.96875 24.324219 18 24 18 C 23.699219 18 23 17.988281 23 17 L 23 12 C 23 11.183594 23.433594 11 24 11 Z M 25.457031 21.921875 C 20.414063 21.910156 15.375 21.921875 10.332031 22 C 9.652344 22.019531 8.972656 22.117188 8.324219 22.328125 C 7.800781 22.503906 7.300781 22.746094 6.847656 23.0625 C 6.3125 23.4375 5.851563 23.910156 5.492188 24.453125 C 5.238281 24.832031 5.035156 25.246094 4.882813 25.675781 C 4.632813 26.367188 4.519531 27.097656 4.5 27.828125 C 4.449219 31.109375 4.449219 34.390625 4.5 37.671875 C 4.519531 38.296875 4.601563 38.914063 4.765625 39.519531 C 5.082031 40.660156 5.6875 41.726563 6.570313 42.527344 C 6.824219 42.757813 7.097656 42.964844 7.390625 43.144531 C 7.75 43.367188 8.136719 43.550781 8.539063 43.6875 C 9.117188 43.882813 9.722656 43.980469 10.332031 44 C 20.441406 44.1875 30.558594 44.15625 40.667969 44 C 41.347656 43.980469 42.027344 43.882813 42.675781 43.671875 C 43.199219 43.496094 43.699219 43.253906 44.152344 42.9375 C 44.6875 42.5625 45.148438 42.089844 45.511719 41.546875 C 45.761719 41.167969 45.964844 40.753906 46.121094 40.324219 C 46.367188 39.632813 46.480469 38.902344 46.5 38.171875 C 46.550781 34.753906 46.515625 31.332031 46.5 27.917969 C 46.488281 27.179688 46.382813 26.441406 46.140625 25.746094 C 45.996094 25.3125 45.796875 24.894531 45.546875 24.511719 C 45.195313 23.964844 44.738281 23.484375 44.210938 23.105469 C 43.742188 22.765625 43.222656 22.507813 42.675781 22.328125 C 42 22.109375 41.292969 22.011719 40.582031 22 C 35.542969 21.976563 30.5 21.933594 25.457031 21.921875 Z M 33.09375 23.9375 C 35.605469 23.941406 38.117188 23.960938 40.625 24 C 41.023438 24.011719 41.421875 24.058594 41.808594 24.15625 C 42.429688 24.320313 43.015625 24.628906 43.464844 25.089844 C 43.617188 25.246094 43.75 25.414063 43.871094 25.597656 C 44.039063 25.859375 44.171875 26.144531 44.265625 26.441406 C 44.421875 26.902344 44.484375 27.386719 44.5 27.875 C 44.550781 31.292969 44.550781 34.710938 44.5 38.125 C 44.484375 38.613281 44.421875 39.097656 44.265625 39.558594 C 44.171875 39.855469 44.039063 40.140625 43.871094 40.402344 C 43.75 40.585938 43.617188 40.753906 43.464844 40.910156 C 43.015625 41.371094 42.429688 41.679688 41.808594 41.84375 C 41.421875 41.941406 41.023438 41.988281 40.625 42 C 30.566406 42.15625 20.503906 42.0625 10.441406 42 C 10.011719 41.992188 9.589844 41.929688 9.179688 41.792969 C 8.921875 41.703125 8.671875 41.585938 8.441406 41.441406 C 8.253906 41.328125 8.074219 41.195313 7.914063 41.046875 C 7.296875 40.484375 6.890625 39.730469 6.679688 38.933594 C 6.566406 38.507813 6.515625 38.066406 6.5 37.625 C 6.449219 34.398438 6.484375 31.167969 6.5 27.9375 C 6.507813 27.445313 6.570313 26.957031 6.71875 26.488281 C 6.8125 26.1875 6.941406 25.902344 7.109375 25.636719 C 7.230469 25.441406 7.375 25.253906 7.535156 25.089844 C 8 24.613281 8.601563 24.304688 9.242188 24.144531 C 9.65625 24.042969 10.082031 24.003906 10.503906 24 C 18.035156 24 25.566406 23.914063 33.09375 23.9375 Z M 11 26 L 11 28 L 13 28 L 13 40 L 15 40 L 15 28 L 17 28 L 17 26 Z M 26 26 L 26 40 L 28 40 L 28 39 C 28.386719 39.449219 28.949219 40.011719 30 40 C 30.621094 39.992188 31.101563 39.492188 31.421875 39.097656 C 31.75 38.703125 32 38.242188 32 37.5 L 32 31.5 C 32 30.636719 31.726563 30.050781 31.378906 29.609375 C 31.03125 29.171875 30.523438 28.9375 29.875 28.9375 C 29.546875 28.9375 29.222656 29.03125 28.902344 29.195313 C 28.574219 29.355469 28.230469 29.640625 28 30 L 28 26 Z M 18 29 L 18 38 C 18 38.625 18.269531 38.933594 18.5 39.234375 C 18.757813 39.5625 19.308594 40 19.792969 40 C 20.183594 40 20.605469 40.015625 21.019531 39.78125 C 21.4375 39.574219 21.628906 39.4375 22 39 L 22 40 L 24 40 L 24 29 L 22 29 L 22 37 C 21.820313 37.234375 21.8125 37.992188 21 38 C 20.269531 38.007813 20 37.230469 20 37 L 20 29 Z M 36.199219 29 C 35.25 29 34.371094 29.230469 33.902344 29.710938 C 33.320313 30.308594 33.003906 30.980469 33.003906 31.886719 L 33.003906 36.59375 C 33.003906 37.613281 33.28125 38.40625 33.8125 38.984375 C 34.34375 39.5625 35.085938 39.84375 36.035156 39.84375 C 37.074219 39.84375 37.867188 39.585938 38.375 39.027344 C 38.914063 38.496094 39 37.683594 39 36.59375 L 39 36 L 37 36 L 37 36.5 C 37 37.101563 36.941406 37.566406 36.800781 37.730469 C 36.664063 37.914063 36.40625 37.996094 36 38 C 35.632813 38.003906 35.355469 37.902344 35.21875 37.671875 C 35.074219 37.460938 35 37.105469 35 36.546875 L 35 35 L 39 35 L 39 31.886719 C 39 30.886719 38.835938 30.265625 38.320313 29.734375 C 37.816406 29.203125 37.148438 29 36.199219 29 Z M 29 30.5 C 29.550781 30.5 30 31 30 32 L 30 37.023438 C 30 37.574219 29.550781 38 29 38 C 28.449219 38 28.007813 37.789063 28 37.5 L 28 31.5 C 28.007813 30.996094 28.449219 30.5 29 30.5 Z M 36 31 C 36.550781 31 37 31.386719 37 32 L 37 33 L 35 33 L 35 32 C 35.007813 31.464844 35.449219 31 36 31 Z"/></svg>
	<svg id="mark" viewBox="0 0 9 10">
		<path d="M7.43757 1.74419C6.70501 0.627907 5.49571 0 4.13525 0C2.78641 0 1.57711 0.627907 0.821293 1.74419C0.0654788 2.83721 -0.10894 4.23256 0.356176 5.45349C0.484083 5.77907 0.681758 6.11628 0.937572 6.4186L3.87943 9.88372C3.9492 9.95349 4.01897 10 4.12362 10C4.22827 10 4.29804 9.95349 4.3678 9.88372L7.32129 6.4186C7.57711 6.11628 7.78641 5.7907 7.90269 5.45349C8.3678 4.23256 8.19339 2.83721 7.43757 1.74419ZM4.13525 5.86047C3.13525 5.86047 2.30966 5.03488 2.30966 4.03488C2.30966 3.03488 3.13525 2.2093 4.13525 2.2093C5.13525 2.2093 5.96083 3.03488 5.96083 4.03488C5.96083 5.03488 5.14687 5.86047 4.13525 5.86047Z" />
	</svg>
	<svg id="heart" viewBox="0 0 512 512" xmlns="http://www.w3.org/2000/svg">
		<path d="M244 84L255.1 96L267.1 84.02C300.6 51.37 347 36.51 392.6 44.1C461.5 55.58 512 115.2 512 185.1V190.9C512 232.4 494.8 272.1 464.4 300.4L283.7 469.1C276.2 476.1 266.3 480 256 480C245.7 480 235.8 476.1 228.3 469.1L47.59 300.4C17.23 272.1 0 232.4 0 190.9V185.1C0 115.2 50.52 55.58 119.4 44.1C164.1 36.51 211.4 51.37 244 84C243.1 84 244 84.01 244 84L244 84zM255.1 163.9L210.1 117.1C188.4 96.28 157.6 86.4 127.3 91.44C81.55 99.07 48 138.7 48 185.1V190.9C48 219.1 59.71 246.1 80.34 265.3L256 429.3L431.7 265.3C452.3 246.1 464 219.1 464 190.9V185.1C464 138.7 430.4 99.07 384.7 91.44C354.4 86.4 323.6 96.28 301.9 117.1L255.1 163.9z"/>
	</svg>
	<svg id="vk" viewBox="0 0 18 11" xmlns="http://www.w3.org/2000/svg">
		<path d="M14.7034 6.23046C14.4274 5.88189 14.5064 5.72681 14.7034 5.41522C14.707 5.41167 16.9855 2.26311 17.2203 1.19534L17.2217 1.19463C17.3384 0.805504 17.2217 0.519531 16.6576 0.519531H14.7909C14.3157 0.519531 14.0966 0.764956 13.9793 1.03955C13.9793 1.03955 13.0289 3.31453 11.6844 4.78921C11.2504 5.21533 11.0498 5.35191 10.8129 5.35191C10.6963 5.35191 10.5149 5.21533 10.5149 4.8262V1.19463C10.5149 0.727964 10.3818 0.519531 9.98843 0.519531H7.0533C6.75523 0.519531 6.5781 0.737212 6.5781 0.939955C6.5781 1.38243 7.25035 1.48416 7.32006 2.72907V5.43016C7.32006 6.02203 7.21264 6.13087 6.97433 6.13087C6.33979 6.13087 4.79966 3.84664 3.88696 1.23233C3.70271 0.725119 3.52274 0.520243 3.04398 0.520243H1.17662C0.643795 0.520243 0.536377 0.765667 0.536377 1.04026C0.536377 1.52542 1.17092 3.93769 3.48717 7.12466C5.03085 9.30005 7.20482 10.4788 9.18245 10.4788C10.3712 10.4788 10.5163 10.217 10.5163 9.76671C10.5163 7.68807 10.4089 7.49173 11.0043 7.49173C11.2803 7.49173 11.7555 7.62832 12.8652 8.6776C14.1336 9.92179 14.3421 10.4788 15.052 10.4788H16.9187C17.4508 10.4788 17.7204 10.217 17.5653 9.70055C17.2103 8.61428 14.8116 6.37985 14.7034 6.23046Z" />
	</svg>
	<svg id="arrow" fill="#fff" class="svg-icon" style="width: 1em; height: 1em;vertical-align: middle;fill: currentColor;overflow: hidden;" viewBox="0 0 1024 1024" version="1.1" xmlns="http://www.w3.org/2000/svg"><path d="M697.5 959.6l57.9-58-389.9-389.8 389.9-389.9-57.9-58-447.9 447.9z"  /></svg>
	<symbol id="dot" viewBox="0 0 6 7">
		<path d="M5 3.20732C5 4.51647 3.97725 5.54941 2.75 5.54941C1.52275 5.54941 0.5 4.51647 0.5 3.20732C0.5 1.89817 1.52275 0.865234 2.75 0.865234C3.97725 0.865234 5 1.89817 5 3.20732Z" />
	</symbol>
	<symbol id="home-run" viewBox="0 0 12 12">
		<svg width="12" height="12" viewBox="0 0 12 12"  xmlns="http://www.w3.org/2000/svg">
			<g clip-path="url(#clip0_305_2083)">
				<path d="M11.7985 5.36427L6.41446 0.458394C6.17814 0.243027 5.82177 0.243051 5.58554 0.458371L0.201516 5.3643C0.0122119 5.5368 -0.0503192 5.80258 0.042165 6.04138C0.134673 6.28019 0.359907 6.43448 0.616008 6.43448H1.47593V11.3498C1.47593 11.5447 1.63394 11.7027 1.82883 11.7027H4.77993C4.97481 11.7027 5.13283 11.5447 5.13283 11.3498V8.36537H6.86724V11.3498C6.86724 11.5447 7.02526 11.7027 7.22014 11.7027H10.1711C10.366 11.7027 10.524 11.5447 10.524 11.3498V6.43448H11.3841C11.6402 6.43448 11.8654 6.28016 11.9579 6.04138C12.0503 5.80256 11.9878 5.5368 11.7985 5.36427Z"  />
				<path d="M10.4317 1.00195H8.06177L10.7846 3.47779V1.35483C10.7846 1.15995 10.6266 1.00195 10.4317 1.00195Z" />
			</g>
		<defs>
			<clipPath id="clip0_305_2083">
				<rect width="12" height="12" fill="white"/>
			</clipPath>
		</defs>
		</svg>
	</symbol>
	<symbol id="search" viewBox="0 0 18 18">
		<svg width="18" height="18" viewBox="0 0 18 18" fill="none" xmlns="http://www.w3.org/2000/svg">
			<path d="M16.8676 15.2581L13.5441 11.9344C13.3941 11.7844 13.1907 11.7011 12.9774 11.7011H12.434C13.3541 10.5243 13.9008 9.04417 13.9008 7.43401C13.9008 3.60364 10.7973 0.5 6.96711 0.5C3.13693 0.5 0.0334473 3.60364 0.0334473 7.43401C0.0334473 11.2644 3.13693 14.368 6.96711 14.368C8.57718 14.368 10.0573 13.8213 11.234 12.9012V13.4446C11.234 13.658 11.3173 13.8613 11.4673 14.0113L14.7908 17.335C15.1042 17.6483 15.6108 17.6483 15.9209 17.335L16.8642 16.3916C17.1776 16.0782 17.1776 15.5715 16.8676 15.2581ZM6.96711 11.7011C4.61033 11.7011 2.70024 9.79424 2.70024 7.43401C2.70024 5.07711 4.607 3.16693 6.96711 3.16693C9.32388 3.16693 11.234 5.07378 11.234 7.43401C11.234 9.79091 9.32722 11.7011 6.96711 11.7011Z" fill="white"/>
		</svg>
	</symbol>
	<symbol id="options" viewBox="0 0 19 18">
		<svg width="19" height="18" viewBox="0 0 19 18" fill="none" xmlns="http://www.w3.org/2000/svg">
			<g clip-path="url(#clip0_2831_2287)">
				<path d="M6.91109 4.29814C6.91109 2.90551 5.937 1.73697 4.63453 1.4358V0.661897C4.63453 0.296309 4.33822 0 3.97264 0C3.60705 0 3.31074 0.296309 3.31074 0.661897V1.4358C2.00835 1.73689 1.03418 2.90551 1.03418 4.29814C1.03418 5.69077 2.00827 6.85931 3.31074 7.16048V17.3381C3.31074 17.7037 3.60705 18 3.97264 18C4.33822 18 4.63453 17.7037 4.63453 17.3381V7.16048C5.937 6.85931 6.91109 5.69077 6.91109 4.29814ZM2.35805 4.29814C2.35805 3.40781 3.08238 2.68348 3.97271 2.68348C4.86303 2.68348 5.58737 3.40781 5.58737 4.29814C5.58737 5.18846 4.86303 5.9128 3.97271 5.9128C3.08238 5.9128 2.35805 5.18846 2.35805 4.29814Z" fill="#664EF9"/>
				<path d="M9.66188 8.89222V0.661897C9.66188 0.296309 9.36557 0 8.99998 0C8.63439 0 8.33808 0.296309 8.33808 0.661897V8.89222C7.03569 9.19331 6.06152 10.3619 6.06152 11.7546C6.06152 13.1472 7.03562 14.3157 8.33808 14.6169V17.3381C8.33808 17.7037 8.63439 18 8.99998 18C9.36557 18 9.66188 17.7037 9.66188 17.3381V14.6169C10.9643 14.3158 11.9384 13.1472 11.9384 11.7546C11.9384 10.3619 10.9643 9.19338 9.66188 8.89222ZM7.38539 11.7546C7.38539 10.8642 8.10973 10.1399 9.00005 10.1399C9.89038 10.1399 10.6147 10.8642 10.6147 11.7546C10.6147 12.6449 9.89038 13.3692 9.00005 13.3692C8.10973 13.3692 7.38539 12.6449 7.38539 11.7546Z" fill="#664EF9"/>
				<path d="M16.9658 7.20151C16.9658 5.80888 15.9917 4.64034 14.6892 4.33918V0.661897C14.6892 0.296309 14.3929 0 14.0273 0C13.6617 0 13.3654 0.296309 13.3654 0.661897V4.33918C12.063 4.64027 11.0889 5.80888 11.0889 7.20151C11.0889 8.59415 12.063 9.76269 13.3654 10.0639V17.3381C13.3654 17.7037 13.6617 18 14.0273 18C14.3929 18 14.6892 17.7037 14.6892 17.3381V10.0639C15.9917 9.76269 16.9658 8.59415 16.9658 7.20151ZM12.4127 7.20151C12.4127 6.31119 13.1371 5.58685 14.0274 5.58685C14.9177 5.58685 15.6421 6.31119 15.6421 7.20151C15.6421 8.09184 14.9177 8.81618 14.0274 8.81618C13.1371 8.81618 12.4127 8.09184 12.4127 7.20151Z" fill="#664EF9"/>
			</g>
			<defs>
				<clipPath id="clip0_2831_2287">
					<rect width="18" height="18" fill="white" transform="translate(0.5)"/>
				</clipPath>
			</defs>
		</svg>
	</symbol>
	<symbol id="vk" viewBox="0 0 18 11">
<svg width="18" height="11" viewBox="0 0 18 11"  xmlns="http://www.w3.org/2000/svg">
<path d="M14.7034 6.23046C14.4274 5.88189 14.5064 5.72681 14.7034 5.41522C14.707 5.41167 16.9855 2.26311 17.2203 1.19534L17.2217 1.19463C17.3384 0.805504 17.2217 0.519531 16.6576 0.519531H14.7909C14.3157 0.519531 14.0966 0.764956 13.9793 1.03955C13.9793 1.03955 13.0289 3.31453 11.6844 4.78921C11.2504 5.21533 11.0498 5.35191 10.8129 5.35191C10.6963 5.35191 10.5149 5.21533 10.5149 4.8262V1.19463C10.5149 0.727964 10.3818 0.519531 9.98843 0.519531H7.0533C6.75523 0.519531 6.5781 0.737212 6.5781 0.939955C6.5781 1.38243 7.25035 1.48416 7.32006 2.72907V5.43016C7.32006 6.02203 7.21264 6.13087 6.97433 6.13087C6.33979 6.13087 4.79966 3.84664 3.88696 1.23233C3.70271 0.725119 3.52274 0.520243 3.04398 0.520243H1.17662C0.643795 0.520243 0.536377 0.765667 0.536377 1.04026C0.536377 1.52542 1.17092 3.93769 3.48717 7.12466C5.03085 9.30005 7.20482 10.4788 9.18245 10.4788C10.3712 10.4788 10.5163 10.217 10.5163 9.76671C10.5163 7.68807 10.4089 7.49173 11.0043 7.49173C11.2803 7.49173 11.7555 7.62832 12.8652 8.6776C14.1336 9.92179 14.3421 10.4788 15.052 10.4788H16.9187C17.4508 10.4788 17.7204 10.217 17.5653 9.70055C17.2103 8.61428 14.8116 6.37985 14.7034 6.23046Z" />
</svg>
</symbol>
<symbol id="fb" viewBox="0 0 10 19">
<svg width="11" height="20" viewBox="0 0 10 19"  xmlns="http://www.w3.org/2000/svg">
<path d="M7.88394 3.79773H9.44256V1.08311C9.17366 1.04612 8.24887 0.962891 7.17185 0.962891C4.92461 0.962891 3.38519 2.3764 3.38519 4.97434V7.36528H0.905334V10.4H3.38519V18.0359H6.42561V10.4007H8.80517L9.18291 7.36599H6.4249V5.27525C6.42562 4.39813 6.66179 3.79773 7.88394 3.79773Z" />
</svg>
</symbol>
<symbol id="facebook" viewBox="0 0 21 21" >
<svg width="21" height="21"  xmlns="http://www.w3.org/2000/svg">
<path d="M10.8047 0.75C5.28266 0.75 0.805664 5.227 0.805664 10.749C0.805664 15.739 4.46166 19.875 9.24266 20.628V13.64H6.70266V10.749H9.24266V8.546C9.24266 6.038 10.7357 4.655 13.0187 4.655C14.1127 4.655 15.2587 4.85 15.2587 4.85V7.309H13.9947C12.7547 7.309 12.3667 8.081 12.3667 8.872V10.747H15.1377L14.6947 13.638H12.3667V20.626C17.1477 19.877 20.8037 15.74 20.8037 10.749C20.8037 5.227 16.3267 0.75 10.8047 0.75Z" />
</svg>

</symbol>
<symbol id="viber" viewBox="0 0 18 18">
<svg width="18" height="18" viewBox="0 0 18 18" xmlns="http://www.w3.org/2000/svg">
<path d="M8.76711 0.477981C7.36991 0.496852 4.36357 0.726211 2.68185 2.26712C1.43344 3.50827 0.997224 5.33806 0.946417 7.60407C0.902868 9.86136 0.852061 14.1001 4.93842 15.2549V17.0114C4.93842 17.0114 4.91084 17.7154 5.37536 17.8606C5.94876 18.0421 6.27538 17.4984 6.81974 16.9178L7.83589 15.771C10.6303 16.0032 12.7715 15.4669 13.0182 15.387C13.5844 15.2056 16.7787 14.7984 17.3013 10.5589C17.8384 6.18146 17.04 3.42335 15.6029 2.17495L15.5956 2.17349C15.1601 1.77429 13.4182 0.504111 9.52051 0.489594C9.52051 0.489594 9.23309 0.471449 8.76711 0.477981ZM8.81574 1.7097C9.21131 1.70752 9.45446 1.72421 9.45446 1.72421C12.7497 1.73147 14.3254 2.72584 14.6956 3.05972C15.9077 4.09691 16.5305 6.58429 16.0747 10.2395C15.6392 13.7815 13.048 14.0065 12.5689 14.1589C12.3657 14.2243 10.4786 14.6888 8.10371 14.5364C8.10371 14.5364 6.33344 16.671 5.78182 17.2226C5.69472 17.317 5.59311 17.346 5.52778 17.3315C5.43343 17.3097 5.40439 17.1936 5.41165 17.0339L5.42617 14.1168C1.96329 13.1588 2.16652 9.54273 2.20281 7.6556C2.24636 5.76847 2.60201 4.22103 3.65445 3.17585C5.07487 1.89115 7.6283 1.71695 8.81502 1.7097H8.81574ZM9.07704 3.59682C9.04848 3.59673 9.02018 3.60227 8.99376 3.61313C8.96735 3.624 8.94334 3.63997 8.92311 3.66013C8.90288 3.68029 8.88683 3.70425 8.87588 3.73063C8.86493 3.757 8.85929 3.78528 8.85929 3.81384C8.85929 3.87159 8.88223 3.92698 8.92307 3.96781C8.9639 4.00865 9.01929 4.03159 9.07704 4.03159C9.61664 4.02129 10.1529 4.11798 10.655 4.31605C11.157 4.51413 11.6149 4.80968 12.0021 5.18564C12.7932 5.95501 13.1786 6.98567 13.1932 8.33569C13.1932 8.36429 13.1988 8.3926 13.2097 8.41902C13.2207 8.44544 13.2367 8.46944 13.2569 8.48966C13.2771 8.50988 13.3012 8.52592 13.3276 8.53686C13.354 8.54781 13.3823 8.55344 13.4109 8.55344V8.54691C13.4686 8.54691 13.524 8.52397 13.5649 8.48313C13.6057 8.4423 13.6286 8.38691 13.6286 8.32916C13.6556 7.69428 13.553 7.06056 13.3271 6.46659C13.1013 5.87263 12.7569 5.33086 12.3149 4.87426C11.4512 4.03232 10.361 3.59682 9.07631 3.59682H9.07704ZM6.20715 4.09764C6.0528 4.07564 5.89553 4.10633 5.76077 4.18474H5.75206C5.45448 4.35893 5.18012 4.57668 4.91882 4.86701C4.72285 5.09927 4.61325 5.3308 4.58422 5.55581C4.56714 5.68777 4.57954 5.82188 4.62051 5.94848L4.63503 5.95573C4.85874 6.61343 5.15066 7.24592 5.50601 7.84286C5.96662 8.67888 6.53254 9.45237 7.18991 10.1444L7.21168 10.1735L7.24072 10.1952L7.26249 10.217L7.28426 10.2388C7.97904 10.8978 8.75459 11.4661 9.59237 11.9299C10.5504 12.4525 11.1326 12.6993 11.4809 12.8009V12.8082C11.5826 12.8372 11.6755 12.8517 11.7698 12.8517C12.0672 12.83 12.3488 12.7094 12.5697 12.5091C12.8527 12.2551 13.0777 11.9735 13.2447 11.6759V11.6687C13.4116 11.3566 13.3536 11.0582 13.114 10.855C12.6313 10.4327 12.1087 10.0584 11.5535 9.73725C11.1834 9.53402 10.8059 9.65741 10.6535 9.86064L10.3269 10.2736C10.16 10.4769 9.85511 10.4478 9.85511 10.4478L9.8464 10.4551C7.58185 9.87443 6.97942 7.58157 6.97942 7.58157C6.97942 7.58157 6.95039 7.26947 7.16088 7.10979L7.56733 6.78317C7.7633 6.62349 7.90121 6.24606 7.69072 5.87589C7.37002 5.32045 6.99564 4.79778 6.57296 4.31538C6.48102 4.20135 6.35122 4.12409 6.20715 4.09764ZM9.45374 4.74362C9.39599 4.74381 9.34068 4.76694 9.29998 4.80791C9.25928 4.84888 9.23652 4.90434 9.23672 4.96209C9.23691 5.01984 9.26004 5.07515 9.30101 5.11585C9.34198 5.15654 9.39744 5.1793 9.45519 5.17911C10.1816 5.19172 10.8733 5.49189 11.3786 6.0138C11.6066 6.26531 11.7819 6.55996 11.8941 6.88034C12.0063 7.20073 12.0531 7.54036 12.0318 7.87915C12.032 7.93678 12.0551 7.99198 12.0959 8.03265C12.1367 8.07333 12.192 8.09617 12.2496 8.09617L12.2568 8.10488C12.2855 8.10488 12.3139 8.09923 12.3403 8.08824C12.3668 8.07725 12.3908 8.06115 12.4111 8.04085C12.4313 8.02055 12.4473 7.99646 12.4582 7.96996C12.4691 7.94346 12.4747 7.91507 12.4746 7.88641C12.4964 7.02269 12.2278 6.29687 11.698 5.71621C11.1681 5.13556 10.4278 4.80894 9.48422 4.74362C9.47407 4.74291 9.46389 4.74291 9.45374 4.74362ZM9.80939 5.91872C9.78027 5.91786 9.75127 5.92275 9.72404 5.9331C9.6968 5.94345 9.67188 5.95906 9.65068 5.97904C9.62949 5.99903 9.61243 6.02299 9.6005 6.04956C9.58856 6.07614 9.58197 6.1048 9.58112 6.13392C9.58026 6.16304 9.58515 6.19204 9.5955 6.21928C9.60585 6.24651 9.62146 6.27143 9.64144 6.29263C9.66143 6.31382 9.68539 6.33088 9.71196 6.34281C9.73854 6.35475 9.7672 6.36133 9.79632 6.36219C10.5149 6.39848 10.8633 6.76139 10.9068 7.50899C10.9087 7.56547 10.9325 7.61901 10.9731 7.65828C11.0137 7.69756 11.0681 7.7195 11.1246 7.71947H11.1318C11.1611 7.71856 11.1898 7.71177 11.2164 7.6995C11.2429 7.68723 11.2668 7.66973 11.2864 7.64805C11.3061 7.62637 11.3211 7.60096 11.3307 7.57332C11.3403 7.54569 11.3443 7.5164 11.3423 7.48721C11.2915 6.51461 10.7617 5.96953 9.8181 5.91872C9.81519 5.91866 9.81229 5.91866 9.80939 5.91872Z" />
</svg>
</symbol>
<symbol id="telegram" viewBox="0 0 18 15">
<svg width="18" height="15" viewBox="0 0 18 15"  xmlns="http://www.w3.org/2000/svg">
<path d="M16.2089 0.997407L1.56595 6.644C0.566623 7.04538 0.572405 7.60286 1.3826 7.85145L5.14204 9.02421L13.8403 3.53619C14.2516 3.28594 14.6274 3.42056 14.3185 3.69476L7.27118 10.0549H7.26953L7.27118 10.0557L7.01185 13.9308C7.39176 13.9308 7.55941 13.7565 7.77249 13.5509L9.59853 11.7752L13.3968 14.5808C14.0971 14.9665 14.6001 14.7683 14.7744 13.9325L17.2677 2.18173C17.5229 1.15846 16.8771 0.695132 16.2089 0.997407Z" />
</svg>
</symbol>

<symbol id="whatsapp" viewBox="0 0 18 18">
<svg width="18" height="18" viewBox="0 0 18 18"  xmlns="http://www.w3.org/2000/svg">
<path d="M15.1558 2.87929C14.3846 2.10244 13.4667 1.48655 12.4555 1.06738C11.4442 0.64821 10.3598 0.43412 9.26514 0.43754C4.67675 0.43754 0.942178 4.17211 0.942178 8.76365C0.942178 10.2308 1.32656 11.6654 2.05436 12.9257L0.872864 17.241L5.28692 16.0826C6.50723 16.7473 7.87449 17.0961 9.26409 17.0971H9.26724C13.8556 17.0971 17.5934 13.3625 17.5934 8.771C17.5961 7.67672 17.3821 6.59273 16.9635 5.58165C16.5449 4.57058 15.9302 3.65246 15.1548 2.88034L15.1558 2.87929ZM9.26724 15.6919C8.0271 15.6921 6.80973 15.3588 5.74272 14.7268L5.48961 14.5755L2.87038 15.2613L3.56982 12.7083L3.40599 12.4457C2.71049 11.3438 2.34295 10.0667 2.34632 8.76365C2.34854 6.92797 3.07897 5.16815 4.37729 3.87042C5.67561 2.57269 7.43576 1.84307 9.27144 1.84168C11.1188 1.84168 12.859 2.56423 14.1644 3.86965C14.8086 4.51152 15.3192 5.2747 15.6668 6.11507C16.0143 6.95544 16.1919 7.85636 16.1892 8.76575C16.1861 12.5854 13.0816 15.6909 9.26724 15.6909V15.6919ZM13.0617 10.507C12.8548 10.402 11.8308 9.89999 11.6407 9.83067C11.4506 9.76136 11.312 9.72565 11.1713 9.93569C11.0337 10.1426 10.6336 10.612 10.5117 10.7528C10.3899 10.8903 10.2691 10.9103 10.0623 10.8053C9.85536 10.7002 9.18218 10.4808 8.38821 9.77186C7.77068 9.2205 7.35165 8.53786 7.22982 8.33096C7.108 8.12407 7.21617 8.0096 7.32224 7.90773C7.41781 7.81531 7.52914 7.66513 7.63416 7.5433C7.73918 7.42148 7.77174 7.33641 7.84105 7.19568C7.91036 7.0581 7.87676 6.93628 7.82425 6.83125C7.77173 6.72623 7.3548 5.70227 7.18466 5.28534C7.01768 4.87785 6.84334 4.93457 6.71522 4.92721C6.59339 4.92091 6.45581 4.92091 6.31824 4.92091C6.18066 4.92091 5.95381 4.97342 5.76372 5.18032C5.57363 5.38721 5.03487 5.89236 5.03487 6.91632C5.03487 7.94028 5.77947 8.92854 5.8845 9.06927C5.98952 9.20684 7.35165 11.3104 9.43843 12.2105C9.93413 12.4237 10.3217 12.5518 10.6231 12.6505C11.1219 12.808 11.5746 12.7849 11.9327 12.7324C12.3328 12.6736 13.1635 12.2304 13.3379 11.7442C13.5122 11.2579 13.5122 10.842 13.4597 10.7559C13.4103 10.6635 13.2728 10.612 13.0627 10.506L13.0617 10.507Z" />
</svg>
</symbol>
<symbol id="instagram" viewBox="0 0 24 24" >
<svg width="24" height="24"   xmlns="http://www.w3.org/2000/svg">
<path d="M11.8056 5.99111C8.48036 5.99111 5.79677 8.6747 5.79677 11.9999C5.79677 15.3251 8.48036 18.0087 11.8056 18.0087C15.1308 18.0087 17.8143 15.3251 17.8143 11.9999C17.8143 8.6747 15.1308 5.99111 11.8056 5.99111ZM11.8056 15.9052C9.65517 15.9052 7.90028 14.1503 7.90028 11.9999C7.90028 9.84951 9.65517 8.09462 11.8056 8.09462C13.9559 8.09462 15.7108 9.84951 15.7108 11.9999C15.7108 14.1503 13.9559 15.9052 11.8056 15.9052ZM18.0604 4.34462C17.2841 4.34462 16.6571 4.97158 16.6571 5.74794C16.6571 6.52431 17.2841 7.15126 18.0604 7.15126C18.8368 7.15126 19.4638 6.52724 19.4638 5.74794C19.464 5.56359 19.4279 5.381 19.3574 5.21064C19.287 5.04028 19.1836 4.88549 19.0533 4.75513C18.9229 4.62477 18.7681 4.52141 18.5977 4.45097C18.4274 4.38053 18.2448 4.34439 18.0604 4.34462ZM23.5184 11.9999C23.5184 10.3827 23.5331 8.78017 23.4423 7.16591C23.3515 5.29091 22.9237 3.62685 21.5526 2.25575C20.1786 0.881731 18.5175 0.456926 16.6425 0.366106C15.0253 0.275285 13.4227 0.289934 11.8085 0.289934C10.1913 0.289934 8.58876 0.275285 6.9745 0.366106C5.0995 0.456926 3.43544 0.88466 2.06435 2.25575C0.690324 3.62978 0.26552 5.29091 0.174699 7.16591C0.0838792 8.7831 0.0985277 10.3856 0.0985277 11.9999C0.0985277 13.6142 0.0838792 15.2196 0.174699 16.8339C0.26552 18.7089 0.693254 20.3729 2.06435 21.744C3.43837 23.1181 5.0995 23.5429 6.9745 23.6337C8.59169 23.7245 10.1942 23.7099 11.8085 23.7099C13.4257 23.7099 15.0282 23.7245 16.6425 23.6337C18.5175 23.5429 20.1815 23.1151 21.5526 21.744C22.9267 20.37 23.3515 18.7089 23.4423 16.8339C23.536 15.2196 23.5184 13.6171 23.5184 11.9999ZM20.9403 18.9081C20.7265 19.4413 20.4686 19.8397 20.0556 20.2499C19.6425 20.663 19.247 20.9208 18.7138 21.1347C17.1727 21.747 13.5136 21.6093 11.8056 21.6093C10.0975 21.6093 6.43544 21.747 4.89443 21.1376C4.36122 20.9237 3.96279 20.6659 3.55263 20.2528C3.13954 19.8397 2.88173 19.4442 2.66786 18.911C2.05849 17.3671 2.19618 13.7079 2.19618 11.9999C2.19618 10.2919 2.05849 6.62978 2.66786 5.08876C2.88173 4.55556 3.13954 4.15712 3.55263 3.74697C3.96571 3.33681 4.36122 3.07607 4.89443 2.8622C6.43544 2.25283 10.0975 2.39052 11.8056 2.39052C13.5136 2.39052 17.1757 2.25283 18.7167 2.8622C19.2499 3.07607 19.6483 3.33388 20.0585 3.74697C20.4716 4.16005 20.7294 4.55556 20.9433 5.08876C21.5526 6.62978 21.4149 10.2919 21.4149 11.9999C21.4149 13.7079 21.5526 17.3671 20.9403 18.9081Z" />
</svg>
</symbol>
</svg>